<svg width="110" height="126" viewBox="0 0 110 126" fill="none" xmlns="http://www.w3.org/2000/svg">
<g clip-path="url(#clip0_1_4)">
<path d="M1.49757 109.339C-0.859571 111.997 -0.343946 116.132 2.60248 118.125L19.4953 124.991C21.9261 126.64 25.2163 126.221 27.1806 124.056L49.7208 98.9789L30.2744 77.3473L1.49757 109.339ZM108.502 109.339C108.502 109.339 36.8056 29.4574 35.9708 28.1039C39.752 26.0367 45.8413 23.6988 54.9998 23.6988C64.1583 23.6988 70.2476 26.0367 74.0288 28.1039C73.2186 29.482 60.2788 44.0015 60.2788 44.0015L79.7007 65.584L88.098 56.2324C95.1449 48.382 96.2744 36.8894 90.8971 27.8086L80.1672 9.72068C79.1114 7.94881 77.7364 6.44764 76.0422 5.291C66.0489 -1.50119 44.761 -2.01799 33.9574 5.291C32.2632 6.44764 30.8882 7.94881 29.8324 9.72068L19.127 27.7347C18.7587 28.35 10.0177 43.0418 21.9507 56.2816L82.8681 124.031C84.8324 126.221 88.1226 126.615 90.5534 124.966L107.446 118.1C110.368 116.132 110.884 111.997 108.502 109.339Z" fill="black"/>
</g>
<defs>
<clipPath id="clip0_1_4">
<rect width="110" height="126" fill="white"/>
</clipPath>
</defs>
</svg>
