<svg width="34" height="39" viewBox="0 0 34 39" fill="none" xmlns="http://www.w3.org/2000/svg">
<g clip-path="url(#clip0_9_2)">
<path d="M0.46319 33.8432C-0.265381 34.6658 -0.106006 35.9455 0.804708 36.5625L6.02614 38.6877C6.77748 39.198 7.79444 39.0686 8.40158 38.3982L15.3685 30.6363L9.35783 23.9408L0.46319 33.8432ZM33.5373 33.8432C33.5373 33.8432 11.3766 9.11777 11.1185 8.69882C12.2873 8.05898 14.1694 7.33535 17.0002 7.33535C19.831 7.33535 21.7132 8.05898 22.8819 8.69882C22.6315 9.12539 18.6319 13.6195 18.6319 13.6195L24.6351 20.2998L27.2306 17.4053C29.4087 14.9754 29.7578 11.4182 28.0958 8.60742L24.7793 3.00878C24.4529 2.46035 24.0279 1.9957 23.5043 1.63769C20.4154 -0.464655 13.8355 -0.624616 10.4962 1.63769C9.97256 1.9957 9.54756 2.46035 9.22123 3.00878L5.9123 8.58456C5.79846 8.77499 3.09667 13.3225 6.78506 17.4205L25.6141 38.3906C26.2212 39.0686 27.2382 39.1904 27.9895 38.6801L33.211 36.5549C34.1141 35.9455 34.2735 34.6658 33.5373 33.8432Z" fill="black"/>
</g>
<defs>
<clipPath id="clip0_9_2">
<rect width="34" height="39" fill="white"/>
</clipPath>
</defs>
</svg>
